<svg xmlns="http://www.w3.org/2000/svg" viewBox="0 0 108 108" role="img" aria-label="Marble chess board preview">
  <defs>
    <linearGradient id="light" x1="0" y1="0" x2="1" y2="1"><stop stop-color="#f2efe9"/><stop offset="1" stop-color="#d9d9d4"/></linearGradient>
    <linearGradient id="dark" x1="0" y1="0" x2="1" y2="1"><stop stop-color="#7d858c"/><stop offset="1" stop-color="#565e68"/></linearGradient>
    <pattern id="board" width="27" height="27" patternUnits="userSpaceOnUse"><rect width="13.5" height="13.5" fill="url(#light)"/><rect x="13.5" width="13.5" height="13.5" fill="url(#dark)"/><rect y="13.5" width="13.5" height="13.5" fill="url(#dark)"/><rect x="13.5" y="13.5" width="13.5" height="13.5" fill="url(#light)"/></pattern>
    <clipPath id="clip"><rect width="108" height="108" rx="8"/></clipPath>
  </defs>
  <g clip-path="url(#clip)"><rect width="108" height="108" fill="#d9dde4"/><rect width="108" height="108" fill="url(#board)"/></g>
  <path d="M0 18 L108 42 M-12 74 L86 108 M28 0 L108 19" stroke="#ffffff" stroke-opacity=".14" stroke-width="1"/>
  <path d="M10 108 L72 0 M54 108 L108 31" stroke="#39434e" stroke-opacity=".12" stroke-width="1"/>
  <g fill="#f6ead2" stroke="#4b3928" stroke-width=".45" paint-order="stroke fill" text-anchor="middle" font-family="Segoe UI Symbol, Noto Sans Symbols 2, DejaVu Sans, sans-serif" font-size="11.8" font-weight="700">
    <text x="6.75" y="11.2">♜</text><text x="20.25" y="11.2">♞</text><text x="33.75" y="11.2">♝</text><text x="47.25" y="11.2">♛</text><text x="60.75" y="11.2">♚</text><text x="74.25" y="11.2">♝</text><text x="87.75" y="11.2">♞</text><text x="101.25" y="11.2">♜</text>
    <text x="6.75" y="24.7">♟</text><text x="20.25" y="24.7">♟</text><text x="33.75" y="24.7">♟</text><text x="47.25" y="24.7">♟</text><text x="60.75" y="24.7">♟</text><text x="74.25" y="24.7">♟</text><text x="87.75" y="24.7">♟</text><text x="101.25" y="24.7">♟</text>
    <text x="6.75" y="92.2">♟</text><text x="20.25" y="92.2">♟</text><text x="33.75" y="92.2">♟</text><text x="47.25" y="92.2">♟</text><text x="60.75" y="92.2">♟</text><text x="74.25" y="92.2">♟</text><text x="87.75" y="92.2">♟</text><text x="101.25" y="92.2">♟</text>
    <text x="6.75" y="105.7">♜</text><text x="20.25" y="105.7">♞</text><text x="33.75" y="105.7">♝</text><text x="47.25" y="105.7">♛</text><text x="60.75" y="105.7">♚</text><text x="74.25" y="105.7">♝</text><text x="87.75" y="105.7">♞</text><text x="101.25" y="105.7">♜</text>
  </g>
</svg>