<svg xmlns="http://www.w3.org/2000/svg" viewBox="0 0 640 480" fill="none">
  <defs>
    <filter id="glow" x="-30%" y="-30%" width="160%" height="160%">
      <feGaussianBlur stdDeviation="5" result="b"/>
      <feColorMatrix in="b" type="matrix" values="1 0 0 0 1  0 .35 0 0 .12  0 0 .12 0 .02  0 0 0 .8 0"/>
      <feMerge><feMergeNode/><feMergeNode in="SourceGraphic"/></feMerge>
    </filter>
    <radialGradient id="core" cx="0" cy="0" r="1" gradientTransform="translate(333 318) scale(88 34)" gradientUnits="userSpaceOnUse">
      <stop stop-color="#fff6c8" stop-opacity=".92"/>
      <stop offset=".18" stop-color="#ff9d37" stop-opacity=".72"/>
      <stop offset=".54" stop-color="#c7391e" stop-opacity=".28"/>
      <stop offset="1" stop-color="#6a160c" stop-opacity="0"/>
    </radialGradient>
  </defs>
  <ellipse cx="333" cy="318" rx="88" ry="34" fill="url(#core)"/>
  <g stroke-linecap="round" stroke-linejoin="round" filter="url(#glow)">
    <g stroke="#170b08" stroke-width="7" opacity=".95">
      <path d="M333 318 L287 305 L238 292 L187 287"/>
      <path d="M333 318 L292 334 L243 347 L199 364"/>
      <path d="M333 318 L312 353 L295 389"/>
      <path d="M333 318 L352 354 L369 390"/>
      <path d="M333 318 L377 337 L428 352 L477 370"/>
      <path d="M333 318 L384 310 L436 301 L492 296"/>
      <path d="M333 318 L365 291 L394 263"/>
      <path d="M333 318 L310 284 L286 252"/>
    </g>
    <g stroke="#ff6c25" stroke-width="2.4" opacity=".9">
      <path d="M333 318 L287 305 L238 292 L187 287"/>
      <path d="M333 318 L292 334 L243 347 L199 364"/>
      <path d="M333 318 L312 353 L295 389"/>
      <path d="M333 318 L352 354 L369 390"/>
      <path d="M333 318 L377 337 L428 352 L477 370"/>
      <path d="M333 318 L384 310 L436 301 L492 296"/>
      <path d="M333 318 L365 291 L394 263"/>
      <path d="M333 318 L310 284 L286 252"/>
      <path d="M286 305 L266 320 L247 324" opacity=".72"/>
      <path d="M378 337 L401 326 L421 328" opacity=".72"/>
      <path d="M384 310 L405 289 L420 282" opacity=".64"/>
      <path d="M312 353 L326 370 L329 386" opacity=".62"/>
    </g>
  </g>
  <ellipse cx="333" cy="318" rx="29" ry="12" fill="#160b08" stroke="#ffae47" stroke-width="3"/>
</svg>