<svg xmlns="http://www.w3.org/2000/svg" viewBox="0 0 640 480" fill="none">
<defs>
  <linearGradient id="steel" x1="200" y1="100" x2="430" y2="445" gradientUnits="userSpaceOnUse"><stop stop-color="#77737a"/><stop offset=".12" stop-color="#34343c"/><stop offset=".36" stop-color="#181a21"/><stop offset=".68" stop-color="#090b10"/><stop offset="1" stop-color="#020306"/></linearGradient>
  <linearGradient id="steelHi" x1="255" y1="145" x2="360" y2="400" gradientUnits="userSpaceOnUse"><stop stop-color="#aaa5a0"/><stop offset=".18" stop-color="#55545a"/><stop offset=".44" stop-color="#23252c"/><stop offset="1" stop-color="#080a0f"/></linearGradient>
  <linearGradient id="gold" x1="240" y1="92" x2="390" y2="430" gradientUnits="userSpaceOnUse"><stop stop-color="#fff3b0"/><stop offset=".12" stop-color="#e2b957"/><stop offset=".36" stop-color="#9f661d"/><stop offset=".66" stop-color="#4c2b0a"/><stop offset=".86" stop-color="#b77c27"/><stop offset="1" stop-color="#f0cc6b"/></linearGradient>
  <linearGradient id="goldDark" x1="275" y1="120" x2="355" y2="410" gradientUnits="userSpaceOnUse"><stop stop-color="#c89532"/><stop offset=".55" stop-color="#6f4313"/><stop offset="1" stop-color="#d5a94a"/></linearGradient>
  <radialGradient id="chest" cx="0" cy="0" r="1" gradientTransform="translate(320 350) rotate(90) scale(54)"><stop stop-color="#fff8d0"/><stop offset=".1" stop-color="#f5d36f"/><stop offset=".32" stop-color="#a96a1e"/><stop offset=".72" stop-color="#412206" stop-opacity=".3"/><stop offset="1" stop-color="#000" stop-opacity="0"/></radialGradient>
  <filter id="shadow" x="-35%" y="-35%" width="170%" height="180%"><feDropShadow dx="0" dy="18" stdDeviation="12" flood-color="#000" flood-opacity=".85"/></filter>
  <filter id="glow" x="-100%" y="-100%" width="300%" height="300%"><feGaussianBlur stdDeviation="4" result="b"/><feMerge><feMergeNode in="b"/><feMergeNode in="SourceGraphic"/></feMerge></filter>
</defs>
<g filter="url(#shadow)">
  <path d="M154 444c5-56 18-108 42-149 18-31 47-52 87-60l37 30 37-30c40 8 69 29 87 60 24 41 37 93 42 149H154Z" fill="url(#steel)" stroke="#51320d" stroke-width="6"/>
  <path d="M282 245c-47-10-91 2-126 36-21 20-34 45-39 75l62 12 77-27 47-64-21-32Z" fill="url(#steelHi)" stroke="url(#gold)" stroke-width="7"/>
  <path d="M358 245c47-10 91 2 126 36 21 20 34 45 39 75l-62 12-77-27-47-64 21-32Z" fill="url(#steelHi)" stroke="url(#gold)" stroke-width="7"/>
  <path d="M134 326c-31 27-49 66-55 116l95 2 40-100-80-18Z" fill="#11131a" stroke="#6b4313" stroke-width="5"/>
  <path d="M506 326c31 27 49 66 55 116l-95 2-40-100 80-18Z" fill="#11131a" stroke="#6b4313" stroke-width="5"/>
  <path d="M242 294 320 262l78 32-18 148H260l-18-148Z" fill="url(#steelHi)" stroke="url(#gold)" stroke-width="7"/>
  <path d="M268 310 320 286l52 24-13 106h-78l-13-106Z" fill="#101219" stroke="#75501b" stroke-width="4"/>
  <path d="M281 329 320 309l39 20-10 62h-58l-10-62Z" fill="#080a0e" stroke="#3b2a12" stroke-width="3"/>
  <path d="m320 330-22 28 22 27 22-27-22-28Z" fill="url(#gold)" filter="url(#glow)"/>
  <circle cx="320" cy="357" r="50" fill="url(#chest)" opacity=".42"/>
  <path d="M263 370h-58m172 0h58M267 396h-72m178 0h72" stroke="#73501c" stroke-width="4" opacity=".72"/>
  <path d="M235 318 198 442h58l29-122-50-2Zm170 0 37 124h-58l-29-122 50-2Z" fill="#20222a" stroke="#8a5c1c" stroke-width="5"/>
  <path d="M267 244 320 269l53-25-15 53h-76l-15-53Z" fill="#171920" stroke="url(#goldDark)" stroke-width="5"/>
  <path d="M259 116c14-33 35-52 61-52s47 19 61 52l10 81-30 49-41 23-41-23-30-49 10-81Z" fill="url(#steel)" stroke="url(#gold)" stroke-width="7"/>
  <path d="M273 129c13-25 29-39 47-39s34 14 47 39l5 58-20 36-32 18-32-18-20-36 5-58Z" fill="#0b0d12" stroke="#76501a" stroke-width="4"/>
  <path d="m271 128 10-34 24 23 15-42 15 42 24-23 10 34-18 18h-62l-18-18Z" fill="url(#gold)" stroke="#f1d47c" stroke-width="4"/>
  <path d="M281 158 320 142l39 16-8 50-31 19-31-19-8-50Z" fill="#050609" stroke="#443214" stroke-width="3"/>
  <path d="M286 168h68l-13 13h-42l-13-13Z" fill="#fff0a3" filter="url(#glow)"/>
  <path d="M302 194h36M305 207h30" stroke="#956825" stroke-width="3" stroke-linecap="round"/>
  <path d="m268 202-45 31 20 35 54-19-29-47Zm104 0 45 31-20 35-54-19 29-47Z" fill="#1e2028" stroke="#8a5e1e" stroke-width="5"/>
  <path d="M174 300c24-22 51-33 83-34M466 300c-24-22-51-33-83-34" stroke="#d0c6af" stroke-width="6" opacity=".22" stroke-linecap="round"/>
  <path d="M276 303 320 286l44 17" stroke="#efe0bd" stroke-width="5" opacity=".22" stroke-linecap="round"/>
</g>
</svg>