<svg xmlns="http://www.w3.org/2000/svg" viewBox="0 0 96 112">
  <defs><linearGradient id="frame" x1="0" y1="0" x2="1" y2="1"><stop stop-color="#E6E8EF"/><stop offset=".45" stop-color="#6F6979"/><stop offset="1" stop-color="#FFD45C"/></linearGradient><linearGradient id="field" x1="0" y1="0" x2="1" y2="1"><stop stop-color="#231942"/><stop offset="1" stop-color="#17121F"/></linearGradient></defs>
  <path d="M36 14 40 5l5 7 3-10 3 10 5-7 4 9-5 6H41Z" fill="#FFD45C" stroke="#D69A32" stroke-width="1.6" stroke-linejoin="round"/>
  <path d="M8 20h80l4 8-5 60-12 10H21L9 88 4 28Z" fill="url(#field)" stroke="url(#frame)" stroke-width="3" stroke-linejoin="round"/>
  <g transform="rotate(-5 48 55)">
    <rect x="20" y="29" width="56" height="56" rx="4" fill="#231942" stroke="#6A4CFF" stroke-opacity=".32" stroke-width="1.4"/>
    <g fill="#342A43"><rect x="20" y="29" width="7" height="7"/><rect x="34" y="29" width="7" height="7"/><rect x="48" y="29" width="7" height="7"/><rect x="62" y="29" width="7" height="7"/><rect x="27" y="36" width="7" height="7"/><rect x="41" y="36" width="7" height="7"/><rect x="55" y="36" width="7" height="7"/><rect x="69" y="36" width="7" height="7"/><rect x="20" y="43" width="7" height="7"/><rect x="34" y="43" width="7" height="7"/><rect x="48" y="43" width="7" height="7"/><rect x="62" y="43" width="7" height="7"/><rect x="27" y="50" width="7" height="7"/><rect x="41" y="50" width="7" height="7"/><rect x="55" y="50" width="7" height="7"/><rect x="69" y="50" width="7" height="7"/><rect x="20" y="57" width="7" height="7"/><rect x="34" y="57" width="7" height="7"/><rect x="48" y="57" width="7" height="7"/><rect x="62" y="57" width="7" height="7"/><rect x="27" y="64" width="7" height="7"/><rect x="41" y="64" width="7" height="7"/><rect x="55" y="64" width="7" height="7"/><rect x="69" y="64" width="7" height="7"/><rect x="20" y="71" width="7" height="7"/><rect x="34" y="71" width="7" height="7"/><rect x="48" y="71" width="7" height="7"/><rect x="62" y="71" width="7" height="7"/></g>
    <g stroke="#E6E8EF" stroke-width="1.2"><ellipse cx="30" cy="67" rx="6" ry="3.4" fill="#0C0F14"/><ellipse cx="44" cy="72" rx="6" ry="3.4" fill="#0C0F14"/><ellipse cx="58" cy="60" rx="6" ry="3.4" fill="#FFD45C"/><ellipse cx="66" cy="46" rx="6" ry="3.4" fill="#FFD45C"/></g>
  </g>
  <path d="M13 91h70l5 5-8 10H16L8 96Z" fill="#17121F" stroke="url(#frame)" stroke-width="2" stroke-linejoin="round"/>
</svg>
