<svg xmlns="http://www.w3.org/2000/svg" viewBox="0 0 64 64">
  <rect x="4" y="4" width="56" height="56" rx="14" fill="#17121F" stroke="#342A43" stroke-width="2"/>
  <path d="M14 39.5c3.5 0 3.5 2.2 7 2.2s3.5-2.2 7-2.2 3.5 2.2 7 2.2 3.5-2.2 7-2.2 3.5 2.2 7 2.2" fill="none" stroke="#6A4CFF" stroke-width="2" stroke-linecap="round"/>
  <path d="M18 34h30l-5.5 8H23.5L18 34Z" fill="#231942" stroke="#E6E8EF" stroke-width="2" stroke-linejoin="round"/>
  <path d="M27 34V24h11l4 10" fill="none" stroke="#E6E8EF" stroke-width="2" stroke-linejoin="round"/>
  <path d="M31 24v-5h5v5" fill="none" stroke="#FFD45C" stroke-width="2" stroke-linejoin="round"/>
  <path d="M17 47c3.5 0 3.5 2.1 7 2.1s3.5-2.1 7-2.1 3.5 2.1 7 2.1 3.5-2.1 7-2.1" fill="none" stroke="#A65FF7" stroke-width="1.8" stroke-linecap="round" opacity=".8"/>
</svg>
